<?xml version="1.0" standalone="no"?>
<!DOCTYPE svg PUBLIC "-//W3C//DTD SVG 20010904//EN"
 "http://www.w3.org/TR/2001/REC-SVG-20010904/DTD/svg10.dtd">
<svg version="1.0" xmlns="http://www.w3.org/2000/svg"
 width="500.000000pt" height="500.000000pt" viewBox="0 0 500.000000 500.000000"
 preserveAspectRatio="xMidYMid meet">

<g transform="translate(0.000000,500.000000) scale(0.100000,-0.100000)"
fill="currentColor" stroke="none">
<path d="M2390 2941 c-59 -12 -128 -51 -159 -88 -54 -65 -63 -118 -59 -350 3
-203 4 -209 30 -259 77 -146 297 -190 450 -89 48 32 87 113 91 185 2 53 1 55
-23 55 -23 0 -26 -5 -32 -59 -10 -81 -33 -116 -97 -148 -103 -52 -246 -29
-313 50 -46 55 -53 92 -53 287 0 205 11 252 71 304 34 31 116 61 164 61 40 0
115 -25 150 -50 34 -24 65 -78 75 -132 8 -41 31 -56 53 -35 27 28 -22 154 -80
202 -66 56 -181 85 -268 66z"/>
<path d="M890 2920 c-7 -12 -9 -154 -8 -417 l3 -398 25 0 25 0 3 389 2 388
123 -3 c100 -3 128 -8 156 -24 57 -34 76 -68 76 -138 -1 -117 -48 -156 -197
-165 -84 -5 -88 -6 -88 -28 0 -31 31 -39 122 -30 112 10 164 38 199 108 46 90
32 205 -32 269 -54 54 -113 69 -270 69 -117 0 -129 -2 -139 -20z"/>
<path d="M371 2676 l-183 -183 184 -176 c157 -152 185 -174 197 -162 12 12 -9
37 -155 179 l-169 165 170 165 c154 148 169 166 155 180 -14 14 -33 -2 -199
-168z"/>
<path d="M4137 2500 c-147 -321 -163 -361 -148 -370 16 -8 38 35 184 352 161
349 171 377 136 378 -3 0 -81 -162 -172 -360z"/>
<path d="M4432 2837 c-9 -10 27 -51 153 -177 l165 -165 -167 -167 c-147 -147
-165 -169 -153 -183 12 -14 34 4 197 167 l183 183 -68 68 c-37 38 -119 118
-183 178 -91 85 -119 106 -127 96z"/>
<path d="M1456 2348 c-12 -17 -16 -49 -16 -135 0 -69 4 -113 10 -113 6 0 10
35 10 85 0 85 0 85 26 85 14 0 23 4 19 10 -3 6 -15 10 -26 10 -10 0 -19 6 -19
14 0 25 12 46 25 46 8 0 17 5 20 10 13 21 -35 9 -49 -12z"/>
<path d="M1930 2324 c0 -25 -4 -43 -9 -39 -5 3 -12 1 -16 -5 -3 -5 1 -10 9
-10 13 0 16 -13 16 -68 0 -72 16 -102 53 -102 25 0 20 18 -5 22 -21 3 -23 9
-26 76 -3 67 -1 72 18 72 11 0 20 5 20 11 0 6 -9 9 -20 6 -18 -5 -20 0 -20 39
0 24 -4 44 -10 44 -5 0 -10 -21 -10 -46z"/>
<path d="M3172 2328 l3 -45 -40 6 c-58 2 -75 -19 -75 -94 1 -68 16 -89 65
-89 52 0 61 24 57 156 0 200 0 100 0 160z m-21 -68 c14 -8 19 -21 19 -50 0
-62 -15 -90 -48 -90 -40 0 -52 17 -52 71 0 68 32 95 81 69z"/>
<path d="M3420 2349 c0 -25 33 -22 38 4 2 12 -3 17 -17 17 -15 0 -21 -6 -21
-21z"/>
<path d="M3680 2251 c0 -127 8 -151 51 -151 27 0 24 18 -3 22 -21 3 -23 9 -26
76 -3 67 -1 72 18 72 11 0 20 5 20 11 0 6 -9 9 -20 6 -18 -5 -20 0 -20 39 0
24 -4 44 -10 44 -6 0 -10 -46 -10 -119z"/>
<path d="M1180 2283 c-28 -10 -40 -37 -40 -93 0 -42 5 -61 18 -73 34 -31 91
-17 105 25 9 26 -5 30 -17 5 -9 -16 -20 -22 -46 -22 -32 0 -35 3 -38 32 l-3
32 53 3 c46 3 53 6 56 25 2 14 -6 32 -22 48 -25 25 -37 28 -66 18z m54 -26
c10 -7 17 -22 15 -33 -3 -15 -14 -20 -47 -22 -38 -3 -42 -1 -42 20 0 44 38 61
74 35z"/>
<path d="M1360 2283 c-30 -11 -40 -37 -40 -110 0 -98 18 -94 22 5 3 69 5 78
26 87 35 16 29 31 -8 18z"/>
<path d="M1415 2280 c-3 -5 -1 -10 4 -10 6 0 11 5 11 10 0 6 -2 10 -4 10 -3 0
-8 -4 -11 -10z"/>
<path d="M1574 2265 c-24 -24 -26 -32 -22 -82 5 -62 23 -83 68 -83 32 0 63 31
57 57 -3 15 -6 13 -15 -9 -9 -21 -18 -28 -40 -28 -15 0 -33 5 -40 12 -18 18
-15 103 4 122 30 31 74 13 74 -30 0 -20 -6 -23 -42 -27 -41 -3 -41 -4 10 -5
l52 -2 0 34 c0 37 -12 51 -52 61 -21 5 -33 1 -54 -20z"/>
<path d="M1762 2274 c-19 -13 -22 -24 -22 -78 0 -48 4 -67 18 -79 38 -34 103
-9 102 39 -1 15 -4 14 -16 -8 -11 -21 -22 -28 -44 -28 -35 0 -50 23 -50 79 0
75 63 98 98 36 11 -20 11 -20 12 2 0 23 -34 53 -60 53 -9 0 -26 -7 -38 -16z"/>
<path d="M2892 2274 c-19 -13 -22 -24 -22 -78 0 -70 17 -96 63 -96 43 0 57 24
57 95 0 55 -3 66 -22 79 -12 9 -29 16 -38 16 -9 0 -26 -7 -38 -16z m72 -20
c18 -18 21 -85 6 -115 -7 -12 -21 -19 -40 -19 -35 0 -50 23 -50 79 0 43 20 71
50 71 10 0 26 -7 34 -16z"/>
<path d="M3264 2265 c-24 -24 -26 -32 -22 -82 5 -62 23 -83 68 -83 32 0 63 31
57 57 -3 15 -6 13 -15 -9 -9 -21 -18 -28 -40 -28 -15 0 -33 5 -40 12 -18 18
-15 103 4 122 30 31 74 13 74 -30 0 -20 -6 -23 -42 -27 -41 -3 -41 -4 10 -5
l52 -2 0 34 c0 37 -12 51 -52 61 -21 5 -33 1 -54 -20z"/>
<path d="M3430 2196 c0 -57 4 -96 10 -96 6 0 10 36 10 89 0 50 -4 93 -10 96
-6 4 -10 -28 -10 -89z"/>
<path d="M3520 2270 c-35 -35 -23 -65 36 -85 30 -10 39 -18 39 -37 0 -34 -52
-39 -77 -6 l-18 23 0 -22 c0 -40 73 -59 105 -27 28 28 14 57 -37 82 -49 23
-58 38 -36 60 18 18 46 14 60 -8 15 -23 28 -26 28 -6 0 18 -38 46 -62 46 -10
0 -27 -9 -38 -20z"/>
<path d="M3655 2280 c-3 -5 -1 -10 4 -10 6 0 11 5 11 10 0 6 -2 10 -4 10 -3 0
-8 -4 -11 -10z"/>
</g>
</svg>
